<svg width="63" height="63" viewBox="0 0 63 63" fill="none" xmlns="http://www.w3.org/2000/svg">
<path d="M28.6544 2.4836C30.2847 1.06073 32.7153 1.06073 34.3456 2.4836C35.5559 3.53988 37.2516 3.83889 38.7502 3.26024C40.7688 2.48077 43.0529 3.31211 44.0982 5.20677C44.8742 6.61328 46.3654 7.47423 47.9715 7.44301C50.135 7.40095 51.997 8.96337 52.3313 11.1013C52.5794 12.6884 53.6862 14.0074 55.2061 14.5274C57.2535 15.2278 58.4689 17.3329 58.0518 19.4562C57.7421 21.0324 58.331 22.6505 59.5814 23.6589C61.2658 25.0174 61.6879 27.4112 60.5697 29.2638C59.7396 30.639 59.7396 32.361 60.5697 33.7362C61.6879 35.5888 61.2658 37.9826 59.5814 39.341C58.331 40.3495 57.7421 41.9676 58.0518 43.5438C58.4689 45.6671 57.2535 47.7722 55.2061 48.4726C53.6862 48.9926 52.5794 50.3116 52.3313 51.8987C51.997 54.0366 50.135 55.599 47.9715 55.557C46.3654 55.5258 44.8742 56.3867 44.0982 57.7932C43.0529 59.6879 40.7688 60.5192 38.7502 59.7398C37.2516 59.1611 35.5559 59.4601 34.3456 60.5164C32.7153 61.9393 30.2847 61.9393 28.6544 60.5164C27.4441 59.4601 25.7484 59.1611 24.2498 59.7398C22.2312 60.5192 19.9471 59.6879 18.9018 57.7932C18.1258 56.3867 16.6346 55.5258 15.0285 55.557C12.865 55.599 11.003 54.0366 10.6687 51.8987C10.4206 50.3116 9.31377 48.9926 7.79388 48.4726C5.74649 47.7722 4.53114 45.6671 4.94825 43.5438C5.25788 41.9676 4.66895 40.3495 3.41857 39.341C1.73421 37.9826 1.31212 35.5888 2.43029 33.7362C3.26036 32.361 3.26036 30.639 2.43029 29.2638C1.31212 27.4112 1.73421 25.0174 3.41857 23.6589C4.66895 22.6505 5.25788 21.0324 4.94825 19.4562C4.53114 17.3329 5.74649 15.2278 7.79388 14.5274C9.31377 14.0074 10.4206 12.6884 10.6687 11.1013C11.003 8.96337 12.865 7.40095 15.0285 7.44301C16.6346 7.47423 18.1258 6.61328 18.9018 5.20677C19.9471 3.31211 22.2312 2.48077 24.2498 3.26024C25.7484 3.83889 27.4441 3.53988 28.6544 2.4836Z" fill="#F7A8A8"/>
<circle cx="31.5" cy="31.5" r="23.1016" stroke="white" stroke-width="1.04687"/>
<path d="M31.5 33.4688H32.4844C33.5672 33.4688 34.4532 32.5828 34.4532 31.5V21.6562H25.5938C24.1172 21.6562 22.8277 22.4733 22.1583 23.6742" stroke="white" stroke-width="1.57031" stroke-linecap="round" stroke-linejoin="round"/>
<path d="M21.6562 36.4219C21.6562 38.0559 22.9753 39.375 24.6094 39.375H25.5938C25.5938 38.2922 26.4797 37.4062 27.5625 37.4062C28.6453 37.4062 29.5312 38.2922 29.5312 39.375H33.4688C33.4688 38.2922 34.3547 37.4062 35.4375 37.4062C36.5203 37.4062 37.4062 38.2922 37.4062 39.375H38.3906C40.0247 39.375 41.3438 38.0559 41.3438 36.4219V33.4688H38.3906C37.8492 33.4688 37.4062 33.0258 37.4062 32.4844V29.5312C37.4062 28.9898 37.8492 28.5469 38.3906 28.5469H39.6604L37.9772 25.6036C37.6228 24.9933 36.9732 24.6094 36.2644 24.6094H34.4531V31.5C34.4531 32.5828 33.5672 33.4688 32.4844 33.4688H31.5" stroke="white" stroke-width="1.57031" stroke-linecap="round" stroke-linejoin="round"/>
<path d="M27.5625 41.3438C28.6498 41.3438 29.5312 40.4623 29.5312 39.375C29.5312 38.2877 28.6498 37.4062 27.5625 37.4062C26.4752 37.4062 25.5938 38.2877 25.5938 39.375C25.5938 40.4623 26.4752 41.3438 27.5625 41.3438Z" stroke="white" stroke-width="1.57031" stroke-linecap="round" stroke-linejoin="round"/>
<path d="M35.4375 41.3438C36.5248 41.3438 37.4062 40.4623 37.4062 39.375C37.4062 38.2877 36.5248 37.4062 35.4375 37.4062C34.3502 37.4062 33.4688 38.2877 33.4688 39.375C33.4688 40.4623 34.3502 41.3438 35.4375 41.3438Z" stroke="white" stroke-width="1.57031" stroke-linecap="round" stroke-linejoin="round"/>
<path d="M41.3438 31.5V33.4688H38.3906C37.8492 33.4688 37.4062 33.0258 37.4062 32.4844V29.5312C37.4062 28.9898 37.8492 28.5469 38.3906 28.5469H39.6604L41.3438 31.5Z" stroke="white" stroke-width="1.57031" stroke-linecap="round" stroke-linejoin="round"/>
<path d="M21.6562 27.5625H27.5625" stroke="white" stroke-width="1.57031" stroke-linecap="round" stroke-linejoin="round"/>
<path d="M21.6562 30.5156H25.5938" stroke="white" stroke-width="1.57031" stroke-linecap="round" stroke-linejoin="round"/>
<path d="M21.6562 33.4688H23.625" stroke="white" stroke-width="1.57031" stroke-linecap="round" stroke-linejoin="round"/>
</svg>
