<svg width="62" height="62" viewBox="0 0 62 62" fill="none" xmlns="http://www.w3.org/2000/svg">
<path d="M28.1995 2.44418C29.8039 1.04389 32.1961 1.04389 33.8005 2.44418C34.9915 3.48369 36.6603 3.77795 38.1351 3.20849C40.1217 2.44139 42.3695 3.25954 43.3982 5.12413C44.1619 6.5083 45.6295 7.35559 47.21 7.32487C49.3392 7.28348 51.1716 8.8211 51.5006 10.9251C51.7448 12.487 52.8341 13.7851 54.3298 14.2968C56.3447 14.9861 57.5408 17.0578 57.1303 19.1474C56.8256 20.6986 57.4052 22.291 58.6357 23.2834C60.2933 24.6203 60.7087 26.9761 59.6083 28.7993C58.7914 30.1527 58.7914 31.8473 59.6083 33.2007C60.7087 35.0239 60.2933 37.3797 58.6357 38.7166C57.4052 39.709 56.8256 41.3014 57.1303 42.8526C57.5408 44.9422 56.3447 47.0139 54.3298 47.7032C52.8341 48.2149 51.7448 49.513 51.5006 51.0749C51.1716 53.1789 49.3392 54.7165 47.21 54.6751C45.6295 54.6444 44.1619 55.4917 43.3982 56.8759C42.3695 58.7405 40.1217 59.5586 38.1351 58.7915C36.6603 58.222 34.9915 58.5163 33.8005 59.5558C32.1961 60.9561 29.8039 60.9561 28.1995 59.5558C27.0085 58.5163 25.3397 58.222 23.8649 58.7915C21.8783 59.5586 19.6305 58.7405 18.6018 56.8759C17.8381 55.4917 16.3705 54.6444 14.79 54.6751C12.6608 54.7165 10.8284 53.1789 10.4994 51.0749C10.2552 49.513 9.16593 48.2149 7.67017 47.7032C5.65528 47.0139 4.45922 44.9422 4.8697 42.8526C5.17442 41.3014 4.59484 39.709 3.3643 38.7166C1.70668 37.3797 1.2913 35.0239 2.39171 33.2007C3.20861 31.8473 3.20861 30.1527 2.39171 28.7993C1.2913 26.9761 1.70668 24.6203 3.36431 23.2834C4.59484 22.291 5.17442 20.6986 4.8697 19.1474C4.45922 17.0578 5.65527 14.9861 7.67017 14.2968C9.16593 13.7851 10.2552 12.487 10.4994 10.9251C10.8284 8.8211 12.6608 7.28348 14.79 7.32487C16.3705 7.35559 17.8381 6.5083 18.6018 5.12413C19.6305 3.25954 21.8783 2.44139 23.8649 3.20849C25.3397 3.77795 27.0085 3.48369 28.1995 2.44418Z" fill="#A6DEA8"/>
<circle cx="31" cy="31" r="22.7266" stroke="white" stroke-width="1.04687"/>
<path fill-rule="evenodd" clip-rule="evenodd" d="M22.4254 28.6219C23.0845 31.184 24.4749 33.8229 26.1012 35.4492C28.3251 37.6731 30.4839 38.5473 32.3171 38.6182C34.1434 38.688 35.7651 37.9626 36.9532 36.7722C37.4879 36.2351 37.832 35.4585 37.9762 34.4937C38.1215 33.5323 38.0634 32.4244 37.839 31.277C36.9834 26.8886 32.8984 23.3988 27.8555 22.1712C25.6188 21.6271 23.9122 21.7166 22.9799 22.6513C22.4591 23.1744 22.1383 23.9951 22.0464 25.0576C21.9569 26.1132 22.0964 27.3443 22.4254 28.6219ZM20.8026 25.0065C20.9025 23.83 21.2676 22.7431 22.0395 21.9677C23.5182 20.4855 25.9571 20.589 28.224 21.1412C33.6528 22.4629 38.1261 26.2329 39.0701 31.0759C39.3084 32.2965 39.3793 33.5113 39.2142 34.6041C39.0515 35.6922 38.6469 36.7001 37.8925 37.4569C37.1557 38.2017 36.2716 38.7846 35.2968 39.1685C34.3221 39.5525 33.2779 39.7289 32.2311 39.6865C29.9584 39.6005 27.5114 38.5229 25.1457 36.1572C23.3577 34.3693 21.8965 31.5583 21.2059 28.8765C20.8595 27.5314 20.7003 26.1922 20.8026 25.0065Z" fill="white"/>
<path fill-rule="evenodd" clip-rule="evenodd" d="M32.2846 27.4107C32.6252 27.4607 32.8542 27.7362 32.7949 28.0268L32.2009 30.9773L35.0025 34.1834L36.766 36.5363L39.0992 40.0355C39.27 40.2924 39.1654 40.619 38.8655 40.7643C38.5656 40.9108 38.1843 40.8213 38.0134 40.5644L35.6965 37.0885L34.1132 34.9786L29.4609 34.3648C29.1203 34.3194 28.8866 34.0463 28.9389 33.7556C28.9912 33.465 29.3109 33.2639 29.6515 33.3092L33.0728 33.7614L31.0651 31.462L26.5081 27.556C26.4511 27.5109 26.4051 27.4534 26.3734 27.3879C26.3418 27.3224 26.3255 27.2506 26.3256 27.1779C26.3257 27.1052 26.3423 27.0335 26.3741 26.9681C26.4059 26.9027 26.4521 26.8453 26.5093 26.8004C26.6346 26.6997 26.7907 26.6451 26.9514 26.6455C27.1122 26.6459 27.268 26.7014 27.3928 26.8027L31.1279 30.0042L31.5627 27.8466C31.6208 27.556 31.944 27.3607 32.2846 27.4107Z" fill="white"/>
</svg>
