<svg width="63" height="63" viewBox="0 0 63 63" fill="none" xmlns="http://www.w3.org/2000/svg">
<path d="M28.6544 2.4836C30.2847 1.06073 32.7153 1.06073 34.3456 2.4836C35.5559 3.53988 37.2516 3.83889 38.7502 3.26024C40.7688 2.48077 43.0529 3.31211 44.0982 5.20677C44.8742 6.61328 46.3654 7.47423 47.9715 7.44301C50.135 7.40095 51.997 8.96337 52.3313 11.1013C52.5794 12.6884 53.6862 14.0074 55.2061 14.5274C57.2535 15.2278 58.4689 17.3329 58.0518 19.4562C57.7421 21.0324 58.331 22.6505 59.5814 23.6589C61.2658 25.0174 61.6879 27.4112 60.5697 29.2638C59.7396 30.639 59.7396 32.361 60.5697 33.7362C61.6879 35.5888 61.2658 37.9826 59.5814 39.341C58.331 40.3495 57.7421 41.9676 58.0518 43.5438C58.4689 45.6671 57.2535 47.7722 55.2061 48.4726C53.6862 48.9926 52.5794 50.3116 52.3313 51.8987C51.997 54.0366 50.135 55.599 47.9715 55.557C46.3654 55.5258 44.8742 56.3867 44.0982 57.7932C43.0529 59.6879 40.7688 60.5192 38.7502 59.7398C37.2516 59.1611 35.5559 59.4601 34.3456 60.5164C32.7153 61.9393 30.2847 61.9393 28.6544 60.5164C27.4441 59.4601 25.7484 59.1611 24.2498 59.7398C22.2312 60.5192 19.9471 59.6879 18.9018 57.7932C18.1258 56.3867 16.6346 55.5258 15.0285 55.557C12.865 55.599 11.003 54.0366 10.6687 51.8987C10.4206 50.3116 9.31377 48.9926 7.79388 48.4726C5.74649 47.7722 4.53114 45.6671 4.94825 43.5438C5.25788 41.9676 4.66895 40.3495 3.41857 39.341C1.73421 37.9826 1.31212 35.5888 2.43029 33.7362C3.26036 32.361 3.26036 30.639 2.43029 29.2638C1.31212 27.4112 1.73421 25.0174 3.41857 23.6589C4.66895 22.6505 5.25788 21.0324 4.94825 19.4562C4.53114 17.3329 5.74649 15.2278 7.79388 14.5274C9.31377 14.0074 10.4206 12.6884 10.6687 11.1013C11.003 8.96337 12.865 7.40095 15.0285 7.44301C16.6346 7.47423 18.1258 6.61328 18.9018 5.20677C19.9471 3.31211 22.2312 2.48077 24.2498 3.26024C25.7484 3.83889 27.4441 3.53988 28.6544 2.4836Z" fill="#6A48FF"/>
<circle cx="31.5" cy="31.5" r="23.1016" stroke="white" stroke-width="1.04687"/>
<path d="M40.3594 29.6541H39.2427C39.1456 27.666 38.2875 25.7914 36.8461 24.4187C35.4047 23.0459 33.4905 22.2803 31.5 22.2803C29.5095 22.2803 27.5953 23.0459 26.1539 24.4187C24.7125 25.7914 23.8544 27.666 23.7573 29.6541H22.6406C22.5427 29.6541 22.4488 29.693 22.3796 29.7622C22.3104 29.8314 22.2715 29.9253 22.2715 30.0232C22.2746 31.7493 22.7601 33.4401 23.6733 34.9048C24.5865 36.3695 25.891 37.5497 27.4395 38.3123V38.8826C27.4395 39.1763 27.5561 39.458 27.7638 39.6657C27.9715 39.8733 28.2532 39.99 28.5469 39.99H34.4531C34.7468 39.99 35.0285 39.8733 35.2362 39.6657C35.4439 39.458 35.5605 39.1763 35.5605 38.8826V38.3123C37.109 37.5497 38.4135 36.3695 39.3267 34.9048C40.2399 33.4401 40.7254 31.7493 40.7285 30.0232C40.7285 29.9253 40.6896 29.8314 40.6204 29.7622C40.5512 29.693 40.4573 29.6541 40.3594 29.6541ZM38.5035 29.6541H32.7043C33.1789 28.7702 33.8378 27.9985 34.6364 27.3913C35.435 26.784 36.3547 26.3554 37.3333 26.1343C38.0345 27.1802 38.4389 28.3966 38.5035 29.6541ZM36.8525 25.4948C35.7718 25.7872 34.7672 26.3104 33.9082 27.0285C33.0491 27.7465 32.356 28.6423 31.8765 29.6541H28.4251C28.833 28.1715 29.7155 26.8634 30.9375 25.9301C32.1595 24.9967 33.6537 24.4895 35.1914 24.4861C35.4064 24.4861 35.6233 24.4981 35.8374 24.5175C36.2074 24.8087 36.5475 25.1361 36.8525 25.4948ZM31.5 23.0096C32.6002 23.0086 33.6849 23.2682 34.6654 23.7672C33.0256 23.8823 31.4645 24.514 30.2062 25.5716C28.9479 26.6293 28.0572 28.0585 27.6619 29.6541H24.4965C24.593 27.8611 25.3727 26.1732 26.6753 24.9374C27.9779 23.7016 29.7044 23.0117 31.5 23.0096ZM35.0373 37.7438C34.973 37.7733 34.9186 37.8207 34.8805 37.8802C34.8424 37.9398 34.8222 38.009 34.8223 38.0797V38.8826C34.8223 38.9805 34.7834 39.0744 34.7141 39.1436C34.6449 39.2128 34.551 39.2517 34.4531 39.2517H28.5469C28.449 39.2517 28.3551 39.2128 28.2859 39.1436C28.2166 39.0744 28.1777 38.9805 28.1777 38.8826V38.0797C28.1778 38.009 28.1576 37.9398 28.1195 37.8802C28.0814 37.8207 28.027 37.7733 27.9627 37.7438C26.5437 37.0896 25.3319 36.0578 24.4598 34.7613C23.5877 33.4647 23.089 31.9533 23.0181 30.3924H39.9819C39.911 31.9533 39.4123 33.4647 38.5402 34.7613C37.6681 36.0578 36.4563 37.0896 35.0373 37.7438Z" fill="white" stroke="white" stroke-width="0.209375"/>
</svg>
