<svg width="63" height="63" viewBox="0 0 63 63" fill="none" xmlns="http://www.w3.org/2000/svg">
<path d="M28.6544 2.4836C30.2847 1.06073 32.7153 1.06073 34.3456 2.4836C35.5559 3.53988 37.2516 3.83889 38.7502 3.26024C40.7688 2.48077 43.0529 3.31211 44.0982 5.20677C44.8742 6.61328 46.3654 7.47423 47.9715 7.44301C50.135 7.40095 51.997 8.96337 52.3313 11.1013C52.5794 12.6884 53.6862 14.0074 55.2061 14.5274C57.2535 15.2278 58.4689 17.3329 58.0518 19.4562C57.7421 21.0324 58.331 22.6505 59.5814 23.6589C61.2658 25.0174 61.6879 27.4112 60.5697 29.2638C59.7396 30.639 59.7396 32.361 60.5697 33.7362C61.6879 35.5888 61.2658 37.9826 59.5814 39.341C58.331 40.3495 57.7421 41.9676 58.0518 43.5438C58.4689 45.6671 57.2535 47.7722 55.2061 48.4726C53.6862 48.9926 52.5794 50.3116 52.3313 51.8987C51.997 54.0366 50.135 55.599 47.9715 55.557C46.3654 55.5258 44.8742 56.3867 44.0982 57.7932C43.0529 59.6879 40.7688 60.5192 38.7502 59.7398C37.2516 59.1611 35.5559 59.4601 34.3456 60.5164C32.7153 61.9393 30.2847 61.9393 28.6544 60.5164C27.4441 59.4601 25.7484 59.1611 24.2498 59.7398C22.2312 60.5192 19.9471 59.6879 18.9018 57.7932C18.1258 56.3867 16.6346 55.5258 15.0285 55.557C12.865 55.599 11.003 54.0366 10.6687 51.8987C10.4206 50.3116 9.31377 48.9926 7.79388 48.4726C5.74649 47.7722 4.53114 45.6671 4.94825 43.5438C5.25788 41.9676 4.66895 40.3495 3.41857 39.341C1.73421 37.9826 1.31212 35.5888 2.43029 33.7362C3.26036 32.361 3.26036 30.639 2.43029 29.2638C1.31212 27.4112 1.73421 25.0174 3.41857 23.6589C4.66895 22.6505 5.25788 21.0324 4.94825 19.4562C4.53114 17.3329 5.74649 15.2278 7.79388 14.5274C9.31377 14.0074 10.4206 12.6884 10.6687 11.1013C11.003 8.96337 12.865 7.40095 15.0285 7.44301C16.6346 7.47423 18.1258 6.61328 18.9018 5.20677C19.9471 3.31211 22.2312 2.48077 24.2498 3.26024C25.7484 3.83889 27.4441 3.53988 28.6544 2.4836Z" fill="#FFA319"/>
<circle cx="31.5" cy="31.5" r="23.1016" fill="#FFA319" stroke="white" stroke-width="1.04687"/>
<path d="M29.8871 28.2742C30.1098 28.2742 30.2903 28.0937 30.2903 27.871C30.2903 27.6483 30.1098 27.4678 29.8871 27.4678C29.6644 27.4678 29.4839 27.6483 29.4839 27.871C29.4839 28.0937 29.6644 28.2742 29.8871 28.2742Z" fill="white"/>
<path d="M25.8549 28.2742C26.0776 28.2742 26.2581 28.0937 26.2581 27.871C26.2581 27.6483 26.0776 27.4678 25.8549 27.4678C25.6322 27.4678 25.4517 27.6483 25.4517 27.871C25.4517 28.0937 25.6322 28.2742 25.8549 28.2742Z" fill="white"/>
<path d="M42.7903 19H33.1129C32.446 19 31.9032 19.5427 31.9032 20.2097V20.5528C30.8319 19.5911 29.421 19 27.871 19C24.5359 19 21.8226 21.7133 21.8226 25.0484V26.2581H21.8351C21.3411 26.6258 21.0161 27.2093 21.0161 27.871C21.0161 28.527 21.3359 29.1052 21.8226 29.4734V30.6935C21.8226 31.3605 22.3653 31.9032 23.0323 31.9032H23.925C24.2024 32.4435 24.5839 32.9218 25.0484 33.306V34.0129L21.0952 35.0669C19.8617 35.396 19 36.5173 19 37.7944V44H36.7419V37.7944C36.7419 36.5173 35.8802 35.396 34.6468 35.0669L30.6935 34.0129V33.306C31.6778 32.4919 32.3065 31.2617 32.3065 29.8871H32.7097C33.8214 29.8871 34.7258 28.9827 34.7258 27.871C34.7258 27.2093 34.4008 26.6258 33.9069 26.2581H33.9194H37.5484V29.0806L41.3117 26.2581H42.7903C43.4573 26.2581 44 25.7153 44 25.0484V20.2097C44 19.5427 43.4573 19 42.7903 19ZM22.629 25.0484C22.629 22.1581 24.9806 19.8065 27.871 19.8065C30.7613 19.8065 33.1129 22.1581 33.1129 25.0484V25.8956C32.9827 25.869 32.8476 25.8548 32.7097 25.8548H32.3065H31.9032C30.7109 25.8548 29.5899 25.3903 28.7468 24.5472L27.871 23.6718L26.9952 24.5472C26.152 25.3903 25.031 25.8548 23.8387 25.8548H23.4355H23.0323C22.8944 25.8548 22.7593 25.869 22.629 25.8956V25.0484ZM23.0323 26.6613H23.4355V29.0806H23.0323C22.3653 29.0806 21.8226 28.5379 21.8226 27.871C21.8226 27.204 22.3653 26.6613 23.0323 26.6613ZM23.0323 31.0968C22.8097 31.0968 22.629 30.9157 22.629 30.6935V29.8464C22.7593 29.873 22.8944 29.8871 23.0323 29.8871H23.4355C23.4355 30.3069 23.498 30.7117 23.6073 31.0968H23.0323ZM25.331 34.7722L27.2738 36.7149L25.5794 38.127L24.0246 35.1206L25.331 34.7722ZM28.9331 38.152L28.4282 39.1613H27.3137L26.8093 38.152L27.871 37.2669L28.9331 38.152ZM27.4294 39.9677H28.3129L28.6355 43.1935H27.1073L27.4294 39.9677ZM21.3032 35.8464L23.2262 35.3335L25.3242 39.3895L26.1726 38.6823L26.652 39.6407L26.2964 43.1935H23.0323V38.7581H22.2258V40.7742H19.8065V37.7944C19.8065 36.8823 20.4218 36.081 21.3032 35.8464ZM19.8065 41.5806H22.2258V43.1935H19.8065V41.5806ZM33.5161 43.1935V41.5806H35.9355V43.1935H33.5161ZM35.9355 37.7944V40.7742H33.5161V38.7581H32.7097V43.1935H29.4456L29.0899 39.6403L29.5694 38.6819L30.4161 39.3875L32.5315 35.3371L34.4387 35.846C35.3202 36.081 35.9355 36.8823 35.9355 37.7944ZM31.7327 35.1246L30.1641 38.1282L28.4681 36.7149L30.4109 34.7722L31.7327 35.1246ZM29.8871 34.1556L27.871 36.1718L25.8548 34.1556V33.8331C26.4605 34.1435 27.1448 34.3226 27.871 34.3226C28.5972 34.3226 29.2815 34.1435 29.8871 33.8331V34.1556ZM31.5 29.8871C31.5 31.8879 29.8722 33.5161 27.871 33.5161C26.6153 33.5161 25.5073 32.875 24.8556 31.9032H25.9294C26.0964 32.3714 26.5399 32.7097 27.0649 32.7097H28.6778C29.3448 32.7097 29.8875 32.1669 29.8875 31.5C29.8875 30.8331 29.3448 30.2903 28.6778 30.2903H27.0649C26.5399 30.2903 26.0964 30.6286 25.9294 31.0968H24.454C24.319 30.7177 24.2419 30.3117 24.2419 29.8871V26.646C25.4976 26.5516 26.6657 26.0173 27.5653 25.1173L27.871 24.8121L28.1766 25.1173C29.0762 26.0173 30.2444 26.5516 31.5 26.646V29.8871ZM26.6613 31.5C26.6613 31.2778 26.8419 31.0968 27.0645 31.0968H28.6774C28.9 31.0968 29.0806 31.2778 29.0806 31.5C29.0806 31.7222 28.9 31.9032 28.6774 31.9032H27.0645C26.8419 31.9032 26.6613 31.7222 26.6613 31.5ZM32.7097 29.0806H32.3065V26.6613H32.7097C33.3766 26.6613 33.9194 27.204 33.9194 27.871C33.9194 28.5379 33.3766 29.0806 32.7097 29.0806ZM43.1935 25.0484C43.1935 25.2706 43.0129 25.4516 42.7903 25.4516H41.0431L38.3548 27.4677V25.4516H33.9194V25.0484C33.9194 23.6927 33.4657 22.4444 32.7097 21.4347V20.2097C32.7097 19.9875 32.8903 19.8065 33.1129 19.8065H42.7903C43.0129 19.8065 43.1935 19.9875 43.1935 20.2097V25.0484Z" fill="white"/>
<path d="M41.1775 21.4192C40.5105 21.4192 39.9678 21.9619 39.9678 22.6289C39.9678 23.2958 40.5105 23.8385 41.1775 23.8385C41.8444 23.8385 42.3871 23.2958 42.3871 22.6289C42.3871 21.9619 41.8444 21.4192 41.1775 21.4192ZM41.1775 23.0321C40.9549 23.0321 40.7742 22.851 40.7742 22.6289C40.7742 22.4067 40.9549 22.2256 41.1775 22.2256C41.4 22.2256 41.5807 22.4067 41.5807 22.6289C41.5807 22.851 41.4 23.0321 41.1775 23.0321Z" fill="white"/>
<path d="M37.9516 21.4192C37.2847 21.4192 36.7419 21.9619 36.7419 22.6289C36.7419 23.2958 37.2847 23.8385 37.9516 23.8385C38.6186 23.8385 39.1613 23.2958 39.1613 22.6289C39.1613 21.9619 38.6186 21.4192 37.9516 21.4192ZM37.9516 23.0321C37.729 23.0321 37.5484 22.851 37.5484 22.6289C37.5484 22.4067 37.729 22.2256 37.9516 22.2256C38.1742 22.2256 38.3548 22.4067 38.3548 22.6289C38.3548 22.851 38.1742 23.0321 37.9516 23.0321Z" fill="white"/>
<path d="M34.7258 21.4192C34.0589 21.4192 33.5161 21.9619 33.5161 22.6289C33.5161 23.2958 34.0589 23.8385 34.7258 23.8385C35.3927 23.8385 35.9355 23.2958 35.9355 22.6289C35.9355 21.9619 35.3927 21.4192 34.7258 21.4192ZM34.7258 23.0321C34.5032 23.0321 34.3226 22.851 34.3226 22.6289C34.3226 22.4067 34.5032 22.2256 34.7258 22.2256C34.9484 22.2256 35.129 22.4067 35.129 22.6289C35.129 22.851 34.9484 23.0321 34.7258 23.0321Z" fill="white"/>
</svg>
